<svg xmlns="http://www.w3.org/2000/svg" fill-rule="evenodd" stroke-linejoin="round"
    stroke-miterlimit="2" clip-rule="evenodd" viewBox="0 0 32 32" id="read">
    <path fill="#008756"
        d="M16,6.882l7.21,-3.605c0.812,-0.406 1.776,-0.362 2.549,0.115c0.772,0.477 1.242,1.32 1.242,2.228l-0,1.38l0.999,-0c0.796,-0 1.559,0.316 2.121,0.879c0.563,0.562 0.879,1.325 0.879,2.121c0,4.184 0,11.816 -0,16c0,0.796 -0.316,1.559 -0.879,2.121c-0.562,0.563 -1.325,0.879 -2.121,0.879l-23.999,0c-0.796,0 -1.559,-0.316 -2.121,-0.879c-0.563,-0.562 -0.879,-1.325 -0.879,-2.121c-0,-4.184 -0,-11.816 -0,-16c-0,-0.796 0.316,-1.559 0.879,-2.121c0.562,-0.563 1.325,-0.879 2.121,-0.879l0.999,0l0,-1.38c0,-0.908 0.47,-1.751 1.242,-2.228c0.773,-0.477 1.737,-0.521 2.549,-0.115l7.209,3.605Zm11.001,2.118l-0,12.999c-0,0.992 -0.561,1.899 -1.448,2.343l-5.316,2.658l7.763,0c0.265,0 0.52,-0.105 0.707,-0.293c0.188,-0.187 0.293,-0.442 0.293,-0.707l-0,-16c0,-0.265 -0.105,-0.52 -0.293,-0.707c-0.187,-0.188 -0.442,-0.293 -0.707,-0.293l-0.999,-0Zm-22.001,0l-0.999,-0c-0.265,-0 -0.52,0.105 -0.707,0.293c-0.188,0.187 -0.293,0.442 -0.293,0.707l-0,16c-0,0.265 0.105,0.52 0.293,0.707c0.187,0.188 0.442,0.293 0.707,0.293l7.763,0l-5.316,-2.658c-0.887,-0.444 -1.448,-1.351 -1.448,-2.343l0,-12.999Zm10,-0.382l0,17.764c-0,-0 -7.658,-3.829 -7.658,-3.829c-0.209,-0.105 -0.342,-0.319 -0.342,-0.554c0,0 0,-16.379 0,-16.379c0,-0.214 0.111,-0.414 0.294,-0.527c0.182,-0.112 0.41,-0.123 0.602,-0.027l7.104,3.552Zm2.001,0l7.103,-3.552c0.193,-0.096 0.421,-0.085 0.603,0.027c0.183,0.113 0.294,0.313 0.294,0.527c-0,0 -0,16.379 -0,16.379c-0,0.235 -0.133,0.449 -0.342,0.554l-7.658,3.829l-0,-17.764Z"></path>
</svg>