<svg xmlns="http://www.w3.org/2000/svg" enable-background="new 0 0 32 32" viewBox="0 0 32 32"
    id="bookmark">
    <g>
        <path fill="#008756"
            d="M19.792,11.309H16.9V8.417c0-0.497-0.403-0.9-0.9-0.9s-0.9,0.403-0.9,0.9v2.892h-2.892
    c-0.497,0-0.9,0.403-0.9,0.9s0.403,0.9,0.9,0.9H15.1V16c0,0.497,0.403,0.9,0.9,0.9s0.9-0.403,0.9-0.9v-2.892h2.892
    c0.497,0,0.9-0.403,0.9-0.9S20.289,11.309,19.792,11.309z"></path>
        <path fill="#22ffb5"
        
            d="M22.822,1.108H9.177c-2.702,0-4.9,2.198-4.9,4.9v21.981c0,1.133,0.636,2.138,1.661,2.622
    c0.401,0.189,0.825,0.282,1.246,0.282c0.655,0,1.301-0.226,1.834-0.664l6.918-5.684c0.037-0.03,0.09-0.03,0.127,0l6.918,5.684
    c0.874,0.718,2.055,0.866,3.08,0.381c1.024-0.484,1.661-1.489,1.661-2.622V6.008C27.723,3.306,25.524,1.108,22.822,1.108z
     M25.922,27.989c0,0.437-0.235,0.808-0.63,0.995c-0.393,0.187-0.831,0.132-1.168-0.145l-6.918-5.684
    c-0.699-0.574-1.713-0.574-2.412,0l-6.918,5.684c-0.337,0.276-0.774,0.331-1.168,0.145c-0.395-0.187-0.63-0.559-0.63-0.995V6.008
    c0-1.709,1.391-3.1,3.1-3.1h13.645c1.709,0,3.1,1.391,3.1,3.1V27.989z"></path>
    </g>
</svg>