<svg xmlns="http://www.w3.org/2000/svg" data-name="Layer 1" viewBox="0 0 64 64" id="collection">
    <path fill="#22ffb5"
        d="M45.6 21.83H18.4a2 2 0 0 1-2-2v-8.77a2 2 0 0 1 2-2h27.2a2 2 0 0 1 2 2v8.77a2 2 0 0 1-2 2Zm-25.2-4h23.2v-4.77H20.4Z"></path>
    <path fill="#008756"
        d="M53.94 54.93H10.06a2 2 0 0 1-2-2V30.6a2 2 0 0 1 2-2h43.88a2 2 0 0 1 2 2v22.33a2 2 0 0 1-2 2Zm-41.88-4h39.88V32.6H12.06Z"></path>
    <path fill="#008756"
        d="M49.94 32.6H14.06a2 2 0 0 1-2-2V19.83a2 2 0 0 1 2-2h35.88a2 2 0 0 1 2 2V30.6a2 2 0 0 1-2 2Zm-33.88-4h31.88v-6.77H16.06Z"></path>
</svg>