<svg xmlns="http://www.w3.org/2000/svg" enable-background="new 0 0 48 48" viewBox="0 0 48 48"
    id="fast-forward">
    <path fill="#22ffb5"
        d="M18.49,45.05c-0.29,0-0.59-0.07-0.86-0.21c-0.61-0.32-0.99-0.95-0.99-1.64V31.65c0-1.02,0.83-1.85,1.85-1.85
    c1.02,0,1.85,0.83,1.85,1.85v8.02L42.92,24L20.33,8.33v8.01c0,1.02-0.83,1.85-1.85,1.85c-1.02,0-1.85-0.83-1.85-1.85V4.8
    c0-0.69,0.38-1.32,0.99-1.64c0.61-0.32,1.34-0.27,1.91,0.12l27.67,19.2C47.7,22.82,48,23.39,48,24c0,0.61-0.3,1.17-0.79,1.52
    L19.54,44.72C19.23,44.94,18.86,45.05,18.49,45.05z"></path>
    <path fill="#008756"
        d="M1.85,45.05c-0.29,0-0.59-0.07-0.86-0.21C0.38,44.52,0,43.89,0,43.2V4.8c0-0.69,0.38-1.32,0.99-1.64
    C1.6,2.84,2.33,2.89,2.9,3.28l27.67,19.2c0.5,0.34,0.79,0.91,0.79,1.52s-0.3,1.17-0.79,1.52L2.9,44.72
    C2.58,44.94,2.22,45.05,1.85,45.05z M3.69,8.32v31.35L26.28,24L3.69,8.32z"></path>
</svg>