<svg width="100" height="100" enable-background="new 0 0 100 100" version="1.1" viewBox="0 0 100 100" xmlns="http://www.w3.org/2000/svg">
 <g stroke-width="1.2114">
  <path d="m46.747 27.001c-10.241-3.9117-19.026-8.6374-29.362-8.5683-2.1127 0.01454-4.292 0.23017-6.561 0.69293l0.38281 55.706c16.92-2.08 27.313 1.8135 35.54 6.2267z" fill="#008756"/>
  <path d="m88.334 74.83 0.39371-55.704c-2.2714-0.46276-4.4507-0.67839-6.5659-0.69293-10.338-0.06905-19.12 4.6518-29.357 8.5635v54.056c8.2279-4.412 18.625-8.3006 35.53-6.2218z" fill="#008756"/>
  <path d="m94.709 29.996-0.34162 48.344c-1e-3 0.15627-0.01455 0.31133-0.03996 0.46518-0.26894 1.6512-1.8256 2.7717-3.4768 2.5016-13.58-2.2169-22.139-0.7426-29.048 2.0691h34.612l-0.04119-54.104z" fill="#22ffb5"/>
  <path d="m8.6897 81.307c-0.15385 0.02544-0.31012 0.03877-0.46639 0.03877-1.673 0.01211-3.0382-1.335-3.0503-3.0079l-0.33193-48.339-1.6693-0.72685-0.03392 54.103h34.604c-6.9075-2.8105-15.464-4.2848-29.052-2.0679z" fill="#22ffb5"/>
 </g>
</svg>
